<svg xmlns="http://www.w3.org/2000/svg" viewBox="0 0 400 240" fill="none">
  <rect width="400" height="240" rx="3" fill="#0b0b0f" stroke="rgba(255,247,237,0.08)"/>
  <rect width="400" height="26" fill="rgba(255,247,237,0.04)"/>
  <circle cx="14" cy="13" r="4" fill="#ff4d4d"/>
  <circle cx="28" cy="13" r="4" fill="#ff9f1c"/>
  <circle cx="42" cy="13" r="4" fill="#22c55e"/>
  <text x="380" y="17" text-anchor="end" font-family="monospace" font-size="9" fill="#7a7c8a">pi-lsp</text>

  <rect x="10" y="38" width="90" height="192" rx="2" fill="rgba(255,247,237,0.03)" stroke="rgba(255,247,237,0.06)"/>
  <text x="18" y="58" font-family="monospace" font-size="8" fill="#7a7c8a">FILES</text>
  <text x="18" y="78" font-family="monospace" font-size="9" fill="#f7f5ef">profile.ts</text>
  <text x="18" y="96" font-family="monospace" font-size="9" fill="#f7f5ef">Layout.astro</text>
  <text x="18" y="114" font-family="monospace" font-size="9" fill="#ff9f1c" font-weight="bold">Nav.astro</text>
  <text x="18" y="132" font-family="monospace" font-size="9" fill="#f7f5ef">Terminal.astro</text>

  <rect x="108" y="38" width="200" height="192" rx="2" fill="rgba(255,247,237,0.02)" stroke="rgba(255,247,237,0.06)"/>
  <text x="120" y="60" font-family="monospace" font-size="9" fill="#7a7c8a">1  2  3  4  5  6</text>
  <text x="120" y="80" font-family="monospace" font-size="9" fill="#f7f5ef">import { base } from '../lib/base';</text>
  <text x="120" y="100" font-family="monospace" font-size="9" fill="#f7f5ef">import { profile } from '../data/profile';</text>
  <rect x="120" y="108" width="145" height="8" fill="rgba(255,77,77,0.18)"/>
  <text x="120" y="120" font-family="monospace" font-size="9" fill="#f7f5ef">const links = [ ... ]</text>
  <text x="120" y="140" font-family="monospace" font-size="9" fill="#f7f5ef">function isActive(...) {</text>
  <text x="120" y="160" font-family="monospace" font-size="9" fill="#f7f5ef">  return normalized === target;</text>
  <text x="120" y="180" font-family="monospace" font-size="9" fill="#f7f5ef">}</text>

  <rect x="316" y="38" width="74" height="192" rx="2" fill="rgba(255,247,237,0.03)" stroke="rgba(255,247,237,0.06)"/>
  <text x="324" y="56" font-family="monospace" font-size="8" fill="#7a7c8a">DIAGNOSTICS</text>
  <circle cx="328" cy="72" r="3" fill="#ff4d4d"/>
  <text x="336" y="76" font-family="monospace" font-size="8" fill="#f7f5ef">base is unused</text>
  <text x="336" y="92" font-family="monospace" font-size="7" fill="#7a7c8a">Nav.astro:19</text>
  <circle cx="328" cy="112" r="3" fill="#ff9f1c"/>
  <text x="336" y="116" font-family="monospace" font-size="8" fill="#f7f5ef">warning</text>
  <text x="336" y="130" font-family="monospace" font-size="7" fill="#7a7c8a">Layout.astro:41</text>
</svg>
